<svg width="28" height="22" viewBox="0 0 28 22" fill="none" xmlns="http://www.w3.org/2000/svg">
<path d="M25 0.625C23.6125 0.1875 22.0875 0 20.625 0C18.1875 0 15.5625 0.5 13.75 1.875C11.9375 0.5 9.3125 0 6.875 0C4.4375 0 1.8125 0.5 0 1.875V20.1875C0 20.5 0.3125 20.8125 0.625 20.8125C0.75 20.8125 0.8125 20.75 0.9375 20.75C2.625 19.9375 5.0625 19.375 6.875 19.375C9.3125 19.375 11.9375 19.875 13.75 21.25C15.4375 20.1875 18.5 19.375 20.625 19.375C22.6875 19.375 24.8125 19.75 26.5625 20.6875C26.6875 20.75 26.75 20.75 26.875 20.75C27.1875 20.75 27.5 20.4375 27.5 20.125V1.875C26.75 1.3125 25.9375 0.9375 25 0.625ZM25 17.5C23.625 17.0625 22.125 16.875 20.625 16.875C18.5 16.875 15.4375 17.6875 13.75 18.75V4.375C15.4375 3.3125 18.5 2.5 20.625 2.5C22.125 2.5 23.625 2.6875 25 3.125V17.5Z" fill="white"/>
</svg>
