<svg width="24" height="24" viewBox="0 0 24 24" fill="none" xmlns="http://www.w3.org/2000/svg">
<path fill-rule="evenodd" clip-rule="evenodd" d="M20.4 18C20.4 18.3183 20.2736 18.6235 20.0485 18.8485C19.8235 19.0736 19.5183 19.2 19.2 19.2L4.8 19.2C4.48174 19.2 4.17652 19.0736 3.95147 18.8485C3.72643 18.6235 3.6 18.3183 3.6 18C3.6 17.6818 3.72643 17.3765 3.95147 17.1515C4.17652 16.9264 4.48174 16.8 4.8 16.8H19.2C19.5183 16.8 19.8235 16.9264 20.0485 17.1515C20.2736 17.3765 20.4 17.6818 20.4 18ZM20.4 12C20.4 12.3183 20.2736 12.6235 20.0485 12.8485C19.8235 13.0736 19.5183 13.2 19.2 13.2H12C11.6817 13.2 11.3765 13.0736 11.1515 12.8485C10.9264 12.6235 10.8 12.3183 10.8 12C10.8 11.6818 10.9264 11.3765 11.1515 11.1515C11.3765 10.9264 11.6817 10.8 12 10.8L19.2 10.8C19.5183 10.8 19.8235 10.9264 20.0485 11.1515C20.2736 11.3765 20.4 11.6818 20.4 12ZM20.4 6.00001C20.4 6.31827 20.2736 6.6235 20.0485 6.84854C19.8235 7.07358 19.5183 7.20001 19.2 7.20001L4.8 7.20001C4.48174 7.20001 4.17652 7.07358 3.95147 6.84854C3.72643 6.6235 3.6 6.31827 3.6 6.00001C3.6 5.68175 3.72643 5.37653 3.95147 5.15148C4.17652 4.92644 4.48174 4.80001 4.8 4.80001L19.2 4.80001C19.5183 4.80001 19.8235 4.92644 20.0485 5.15148C20.2736 5.37653 20.4 5.68175 20.4 6.00001Z" fill="#20293A"/>
</svg>
