<svg width="30" height="31" viewBox="0 0 30 31" fill="none" xmlns="http://www.w3.org/2000/svg">
<path d="M3.375 4.19836C3.375 3.2038 3.65156 2.24998 4.14384 1.54671C4.63613 0.843452 5.30381 0.448364 6 0.448364C6.69619 0.448364 7.36387 0.843452 7.85616 1.54671C8.34844 2.24998 8.625 3.2038 8.625 4.19836C8.625 5.19293 8.34844 6.14675 7.85616 6.85001C7.36387 7.55328 6.69619 7.94836 6 7.94836C5.30381 7.94836 4.63613 7.55328 4.14384 6.85001C3.65156 6.14675 3.375 5.19293 3.375 4.19836ZM3 14.7586C2.53125 15.5086 2.25 16.5064 2.25 17.5912C2.25 18.676 2.53125 19.6738 3 20.4238V14.7586ZM9.76875 11.4573C8.37656 13.2185 7.5 15.7966 7.5 18.6626C7.5 20.9595 8.0625 23.0689 9 24.7229V26.1626C9 27.3479 8.32969 28.3055 7.5 28.3055H4.5C3.67031 28.3055 3 27.3479 3 26.1626V24.368C1.22813 23.1626 0 20.5845 0 17.5912C0 13.4461 2.34844 10.0912 5.25 10.0912H6.75C7.875 10.0912 8.91562 10.5935 9.76875 11.4506V11.4573ZM21 26.1626V24.7229C21.9375 23.0689 22.5 20.9595 22.5 18.6626C22.5 15.7966 21.6234 13.2185 20.2313 11.4506C21.0844 10.5935 22.125 10.0912 23.25 10.0912H24.75C27.6516 10.0912 30 13.4461 30 17.5912C30 20.5845 28.7719 23.1626 27 24.368V26.1626C27 27.3479 26.3297 28.3055 25.5 28.3055H22.5C21.6703 28.3055 21 27.3479 21 26.1626ZM21.375 4.19836C21.375 3.2038 21.6516 2.24998 22.1438 1.54671C22.6361 0.843452 23.3038 0.448364 24 0.448364C24.6962 0.448364 25.3639 0.843452 25.8562 1.54671C26.3484 2.24998 26.625 3.2038 26.625 4.19836C26.625 5.19293 26.3484 6.14675 25.8562 6.85001C25.3639 7.55328 24.6962 7.94836 24 7.94836C23.3038 7.94836 22.6361 7.55328 22.1438 6.85001C21.6516 6.14675 21.375 5.19293 21.375 4.19836ZM27 14.7586V20.4305C27.4688 19.6738 27.75 18.6827 27.75 17.5979C27.75 16.5131 27.4688 15.5153 27 14.7653V14.7586ZM15 0.448364C15.7956 0.448364 16.5587 0.899894 17.1213 1.70362C17.6839 2.50735 18 3.59744 18 4.73408C18 5.87072 17.6839 6.96081 17.1213 7.76454C16.5587 8.56826 15.7956 9.01979 15 9.01979C14.2044 9.01979 13.4413 8.56826 12.8787 7.76454C12.3161 6.96081 12 5.87072 12 4.73408C12 3.59744 12.3161 2.50735 12.8787 1.70362C13.4413 0.899894 14.2044 0.448364 15 0.448364ZM11.25 18.6626C11.25 19.7475 11.5312 20.7385 12 21.4952V15.8301C11.5312 16.5868 11.25 17.5778 11.25 18.6626ZM18 15.8301V21.5019C18.4688 20.7452 18.75 19.7542 18.75 18.6693C18.75 17.5845 18.4688 16.5868 18 15.8368V15.8301ZM21 18.6626C21 21.656 19.7719 24.2341 18 25.4394V28.3055C18 29.4908 17.3297 30.4484 16.5 30.4484H13.5C12.6703 30.4484 12 29.4908 12 28.3055V25.4394C10.2281 24.2341 9 21.656 9 18.6626C9 14.5176 11.3484 11.1626 14.25 11.1626H15.75C18.6516 11.1626 21 14.5176 21 18.6626Z" fill="white"/>
</svg>
