<svg width="28" height="27" viewBox="0 0 28 27" fill="none" xmlns="http://www.w3.org/2000/svg">
<g clip-path="url(#clip0_100_818)">
<rect width="28" height="27" rx="8" fill="#D2D2D2"/>
<path d="M5.488 13.416C5.488 14.472 6.328 15.264 7.384 15.264C8.44 15.264 9.232 14.472 9.232 13.416C9.232 12.336 8.44 11.544 7.384 11.544C6.328 11.544 5.488 12.36 5.488 13.416ZM12.2146 13.416C12.2146 14.472 13.0546 15.264 14.1106 15.264C15.1666 15.264 15.9586 14.472 15.9586 13.416C15.9586 12.336 15.1666 11.544 14.1106 11.544C13.0546 11.544 12.2146 12.36 12.2146 13.416ZM18.9411 13.416C18.9411 14.472 19.7811 15.264 20.8371 15.264C21.8931 15.264 22.6851 14.472 22.6851 13.416C22.6851 12.336 21.8931 11.544 20.8371 11.544C19.7811 11.544 18.9411 12.36 18.9411 13.416Z" fill="#1E293B"/>
</g>
<defs>
<clipPath id="clip0_100_818">
<rect width="28" height="27" rx="8" fill="white"/>
</clipPath>
</defs>
</svg>
